<?xml version="1.0" standalone="no"?>
<!DOCTYPE svg PUBLIC "-//W3C//DTD SVG 20010904//EN"
 "http://www.w3.org/TR/2001/REC-SVG-20010904/DTD/svg10.dtd">
<svg version="1.0" xmlns="http://www.w3.org/2000/svg"
 width="512.000000pt" height="512.000000pt" viewBox="0 0 512.000000 512.000000"
 preserveAspectRatio="xMidYMid meet">

<g transform="translate(0.000000,512.000000) scale(0.100000,-0.100000)"
fill="#000000" stroke="none">
<path d="M1635 5113 c-588 -51 -1116 -342 -1406 -776 -102 -153 -168 -308
-206 -487 -22 -104 -24 -363 -5 -455 51 -235 141 -424 289 -608 l54 -67 -50
-178 c-27 -97 -49 -178 -48 -179 1 -1 83 21 182 48 99 27 186 49 194 49 8 0
47 -20 87 -45 460 -287 1063 -377 1605 -240 653 166 1136 624 1254 1190 9 44
19 134 22 200 19 455 -216 894 -642 1200 -116 84 -350 201 -492 248 -263 85
-576 123 -838 100z m319 -473 c113 -29 190 -73 276 -160 151 -150 208 -340
165 -545 -35 -167 -157 -326 -314 -410 -110 -59 -115 -69 -119 -231 l-4 -134
-149 0 -149 0 0 133 c0 85 5 153 15 190 35 134 112 230 233 291 93 47 135 85
169 154 23 47 28 70 28 132 -1 122 -56 215 -160 265 -180 89 -387 -12 -427
-207 l-12 -58 -148 0 -148 0 0 33 c0 55 37 184 72 250 42 80 163 201 245 245
132 70 286 88 427 52z m6 -1930 l0 -150 -150 0 -150 0 0 150 0 150 150 0 150
0 0 -150z"/>
<path d="M3726 2883 c-131 -265 -365 -519 -651 -706 -265 -173 -585 -292 -915
-342 -136 -20 -402 -29 -510 -17 -47 5 -88 6 -92 3 -15 -13 -40 -160 -45 -266
-7 -139 15 -298 62 -439 269 -824 1301 -1301 2261 -1046 198 52 425 153 575
254 30 20 61 36 69 36 8 0 96 -22 195 -49 99 -27 181 -49 182 -48 1 1 -21 81
-49 178 l-49 177 57 73 c138 179 224 355 276 564 29 119 32 368 5 492 -59 273
-187 503 -397 713 -169 168 -339 283 -568 381 -103 45 -263 98 -338 112 -29 6
-31 4 -68 -70z m-866 -1373 l0 -150 -150 0 -150 0 0 150 0 150 150 0 150 0 0
-150z m600 0 l0 -150 -150 0 -150 0 0 150 0 150 150 0 150 0 0 -150z m600 0
l0 -150 -150 0 -150 0 0 150 0 150 150 0 150 0 0 -150z"/>
</g>
</svg>
